<svg version="1.1" id="Layer_1" xmlns="http://www.w3.org/2000/svg" xmlns:xlink="http://www.w3.org/1999/xlink" x="0px" y="0px" viewBox="0 0 150 70" style="" xml:space="preserve">
	<style type="text/css">
		.svg1{fill:url(#svg1);}
		.svg2{fill:url(#svg2);}
		.svg3{fill:url(#svg3);}
	</style>
	<g>
		<linearGradient id="svg1">
			<stop style="stop-color:#0066b5"></stop>
		</linearGradient>
		<path class="svg1" d="M40.1,0h-4.4C24.9,2,13,18.5,0,49.4c18.9-17.2,37.9-27.8,57-31.9C51.8,7,46.1,1.1,40.1,0z"></path>
		<linearGradient id="svg2">
			<stop style="stop-color:#0066b5"></stop>
		</linearGradient>
		<path class="svg2" d="M114.3,0h-4.4c-6,1.1-11.7,7-17,17.7c19,4.1,38,14.7,57.1,31.7C137,18.5,125.1,2,114.3,0z"></path>
		<linearGradient id="svg3">
			<stop style="stop-color:#96999c"></stop>
		</linearGradient>
		<path class="svg3" d="M109.9,0L109.9,0L40.1,0c6,1.1,11.6,7,16.9,17.6C63.6,30.7,69.6,42.4,75,70h0c5.4-27.5,11.4-39.2,17.9-52.3 C98.2,7,103.9,1.1,109.9,0z"></path>
	</g>
</svg>