<svg version="1.1" xmlns="http://www.w3.org/2000/svg" xmlns:xlink="http://www.w3.org/1999/xlink" x="0px" y="0px" viewBox="0 0 18 18" xml:space="preserve">
	<style>
		.svg_path{
			fill: #2c2c2c;
		}
	</style>
	<path d="M17.71,16.29l-3.41-3.41c2.43-3.13,2.22-7.67-0.66-10.55c-3.12-3.12-8.18-3.12-11.3,0C0.83,3.85,0,5.85,0,7.99 c0,2.13,0.83,4.14,2.34,5.65c1.56,1.56,3.6,2.34,5.65,2.34c1.73,0,3.46-0.56,4.89-1.68l3.41,3.41C16.49,17.9,16.75,18,17,18 s0.51-0.1,0.71-0.29C18.1,17.32,18.1,16.69,17.71,16.29z M3.75,12.23C2.62,11.09,2,9.59,2,7.99c0-1.6,0.62-3.11,1.75-4.24 c2.34-2.34,6.14-2.34,8.47,0c2.34,2.34,2.34,6.14,0,8.48C9.89,14.56,6.09,14.56,3.75,12.23z" class="svg_path"></path>
</svg>
