<svg version="1.1" xmlns="http://www.w3.org/2000/svg" xmlns:xlink="http://www.w3.org/1999/xlink" x="0px" y="0px" viewBox="0 0 15 27" xml:space="preserve">
	<style>
		.svg_path{
			fill: #2c2c2c;
		}
	</style>
	<path d="M7.5,1c2.21,0,4,1.79,4,4v11c0,2.21-1.79,4-4,4s-4-1.79-4-4V5C3.5,2.79,5.29,1,7.5,1 M7.5,0c-2.76,0-5,2.24-5,5v11 c0,2.76,2.24,5,5,5s5-2.24,5-5V5C12.5,2.24,10.26,0,7.5,0L7.5,0z" class="svg_path"></path>
	<path d="M14.5,13c-0.28,0-0.5,0.22-0.5,0.5v3c0,3.58-2.92,6.5-6.5,6.5S1,20.08,1,16.5v-3C1,13.22,0.78,13,0.5,13S0,13.22,0,13.5v3 c0,3.97,3.09,7.22,7,7.47V26H4.5C4.22,26,4,26.22,4,26.5S4.22,27,4.5,27h6c0.28,0,0.5-0.22,0.5-0.5S10.78,26,10.5,26H8v-2.03 c3.91-0.26,7-3.5,7-7.47v-3C15,13.22,14.78,13,14.5,13z" class="svg_path"></path>
</svg>